<svg id="Слой_1" data-name="Слой 1" xmlns="http://www.w3.org/2000/svg" viewBox="0 0 256 256"><defs><style>.cls-1{fill:#1e2432;}.cls-2{fill:#fff;}.cls-3{fill:#42b3d5;}</style></defs><rect class="cls-1" width="256" height="256"/><path class="cls-2" d="M55.84,224.22a1.65,1.65,0,0,1-.5,1.22,1.73,1.73,0,0,1-1.23.48,1.67,1.67,0,0,1-1.22-.48,1.65,1.65,0,0,1-.5-1.22V205.44a1.65,1.65,0,0,1,.5-1.22,1.67,1.67,0,0,1,1.22-.48,1.73,1.73,0,0,1,1.23.48,1.65,1.65,0,0,1,.5,1.22Z"/><path class="cls-2" d="M40.85,219.75H32.06l-2.13,5.13a1.49,1.49,0,0,1-.39.58,1.56,1.56,0,0,1-.56.35,1.85,1.85,0,0,1-.67.1,1.94,1.94,0,0,1-.7-.14,1.53,1.53,0,0,1-.88-1,1.87,1.87,0,0,1,.08-1.33l8.13-18.7a1.88,1.88,0,0,1,.63-.78,1.7,1.7,0,0,1,1-.27,1.73,1.73,0,0,1,.93.27,1.61,1.61,0,0,1,.63.77l8,18.71a1.82,1.82,0,0,1,.09,1.33,1.54,1.54,0,0,1-.87,1,1.78,1.78,0,0,1-.68.16,1.56,1.56,0,0,1-.65-.11,1.87,1.87,0,0,1-.58-.36,1.66,1.66,0,0,1-.41-.56ZM33.5,216.3h5.9l-3-7.05Z"/><path class="cls-2" d="M66,217.83l0,0,0,0a4.47,4.47,0,0,0,.34,1.72,4.89,4.89,0,0,0,2.37,2.59,4.18,4.18,0,0,0,1.8.42,5.3,5.3,0,0,0,1.69-.21,4.38,4.38,0,0,0,1.6-.9c.17-.14.36-.27.56-.41a2,2,0,0,1,.64-.27,1.64,1.64,0,0,1,.73,0,1.75,1.75,0,0,1,.81.45,1.54,1.54,0,0,1,.41.57,1.57,1.57,0,0,1,.13.67,1.83,1.83,0,0,1-.16.71,2.23,2.23,0,0,1-.47.66,7,7,0,0,1-2.53,1.66,8.73,8.73,0,0,1-3.1.56,8.42,8.42,0,0,1-5.9-2.36,8.19,8.19,0,0,1-1.8-2.6,7.89,7.89,0,0,1-.66-3.22v0l0,0,0,0a8,8,0,0,1,.66-3.24,8.46,8.46,0,0,1,4.45-4.41,8.2,8.2,0,0,1,3.25-.65,8.73,8.73,0,0,1,3.1.56,7,7,0,0,1,2.53,1.66,2.27,2.27,0,0,1,.47.67,1.79,1.79,0,0,1,.16.71,1.61,1.61,0,0,1-.13.68,1.54,1.54,0,0,1-.41.57,1.75,1.75,0,0,1-.81.45,1.5,1.5,0,0,1-.73,0,2,2,0,0,1-.64-.28,6.23,6.23,0,0,1-.56-.41,4.47,4.47,0,0,0-1.6-.88,5.61,5.61,0,0,0-1.69-.23,4.29,4.29,0,0,0-1.78.44,4.78,4.78,0,0,0-1.43,1.08,5,5,0,0,0-1,1.51A4.36,4.36,0,0,0,66,217.83Z"/><path class="cls-2" d="M82.67,214.65A8.35,8.35,0,0,1,84.44,212a8.47,8.47,0,0,1,2.64-1.78,8.25,8.25,0,0,1,6.42,0,8.38,8.38,0,0,1,4.38,4.41,8.28,8.28,0,0,1,0,6.43,8.3,8.3,0,0,1-1.77,2.62,8.17,8.17,0,0,1-2.61,1.78,8.25,8.25,0,0,1-6.42,0,8.33,8.33,0,0,1-4.41-4.4,8.28,8.28,0,0,1,0-6.43Zm3.19,5.08a4.84,4.84,0,0,0,2.56,2.55,4.49,4.49,0,0,0,1.86.38,4.55,4.55,0,0,0,1.88-.38,4.77,4.77,0,0,0,2.55-2.55,4.73,4.73,0,0,0,.37-1.87,4.66,4.66,0,0,0-.37-1.87,5,5,0,0,0-1-1.52,4.77,4.77,0,0,0-1.53-1,4.71,4.71,0,0,0-1.88-.37,4.64,4.64,0,0,0-1.86.37,5,5,0,0,0-1.53,1,5.17,5.17,0,0,0-1,1.52,4.66,4.66,0,0,0-.38,1.87A4.74,4.74,0,0,0,85.86,219.73Z"/><path class="cls-2" d="M117.2,224.22a1.67,1.67,0,0,1-1.7,1.7,1.74,1.74,0,0,1-.67-.13,1.92,1.92,0,0,1-.56-.36,1.83,1.83,0,0,1-.38-.54,1.6,1.6,0,0,1-.14-.67v-8.47a2.94,2.94,0,0,0-.22-1.09,2.68,2.68,0,0,0-.54-.85,2.36,2.36,0,0,0-.84-.57,2.77,2.77,0,0,0-1.05-.2,3.28,3.28,0,0,0-1.14.21,3.51,3.51,0,0,0-1,.57,3.15,3.15,0,0,0-.73.86,2.19,2.19,0,0,0-.3,1v.1s0,0,0,.07a.33.33,0,0,1,0,.14v8.17a1.67,1.67,0,0,1-.5,1.22,1.64,1.64,0,0,1-1.22.49,1.74,1.74,0,0,1-1.22-.49,1.72,1.72,0,0,1-.37-.55,1.52,1.52,0,0,1-.14-.67V211.33a1.53,1.53,0,0,1,.14-.68,1.6,1.6,0,0,1,.38-.54,1.93,1.93,0,0,1,.55-.38,1.72,1.72,0,0,1,.68-.14,1.57,1.57,0,0,1,1.11.42,1.72,1.72,0,0,1,.55,1,5.83,5.83,0,0,1,1.57-1.05,4.42,4.42,0,0,1,1.85-.39,5.63,5.63,0,0,1,4.4,2,7.82,7.82,0,0,1,2.3-1.48,6.88,6.88,0,0,1,2.65-.55,5.69,5.69,0,0,1,2.4.5,5.59,5.59,0,0,1,1.83,1.35,6.15,6.15,0,0,1,1.18,2,7,7,0,0,1,.42,2.44v8.34a1.67,1.67,0,0,1-1.7,1.7,1.74,1.74,0,0,1-.67-.13,1.92,1.92,0,0,1-.56-.36,1.83,1.83,0,0,1-.38-.54,1.46,1.46,0,0,1-.14-.67v-8.4a3.26,3.26,0,0,0-.21-1.1,2.76,2.76,0,0,0-.54-.89,2.52,2.52,0,0,0-.85-.58,2.65,2.65,0,0,0-1.07-.21,3.29,3.29,0,0,0-1.14.22,3.8,3.8,0,0,0-1,.58,3,3,0,0,0-.72.86,2.32,2.32,0,0,0-.31,1.05Z"/><path class="cls-2" d="M145.91,224.22a1.64,1.64,0,0,1-.49,1.22,1.76,1.76,0,0,1-1.87.35,1.92,1.92,0,0,1-.56-.36,1.86,1.86,0,0,1-.39-.54,1.6,1.6,0,0,1-.13-.67v-8.47a3.41,3.41,0,0,0-.22-1.09,2.71,2.71,0,0,0-.55-.85,2.41,2.41,0,0,0-.83-.57,2.78,2.78,0,0,0-1.06-.2,3.18,3.18,0,0,0-1.13.21,3.57,3.57,0,0,0-1,.57,3.3,3.3,0,0,0-.72.86,2.21,2.21,0,0,0-.31,1v.1a.08.08,0,0,0,0,.07.33.33,0,0,1,0,.14v8.17a1.67,1.67,0,0,1-1.71,1.71,1.7,1.7,0,0,1-.67-.13,1.73,1.73,0,0,1-.93-.91,1.67,1.67,0,0,1-.14-.67V211.33a1.69,1.69,0,0,1,.14-.68,1.6,1.6,0,0,1,.38-.54,2.13,2.13,0,0,1,.56-.38,1.67,1.67,0,0,1,.67-.14,1.57,1.57,0,0,1,1.11.42,1.73,1.73,0,0,1,.56,1,5.68,5.68,0,0,1,1.57-1.05,4.37,4.37,0,0,1,1.84-.39,5.59,5.59,0,0,1,4.4,2,7.74,7.74,0,0,1,2.31-1.48,6.88,6.88,0,0,1,2.65-.55,5.62,5.62,0,0,1,2.39.5,5.52,5.52,0,0,1,1.84,1.35,6.15,6.15,0,0,1,1.18,2,7,7,0,0,1,.41,2.44v8.34a1.64,1.64,0,0,1-.49,1.22,1.76,1.76,0,0,1-1.87.35,2,2,0,0,1-.57-.36,2,2,0,0,1-.38-.54,1.6,1.6,0,0,1-.14-.67v-8.4a3.52,3.52,0,0,0-.2-1.1,2.62,2.62,0,0,0-.55-.89,2.58,2.58,0,0,0-.84-.58,2.65,2.65,0,0,0-1.07-.21,3.25,3.25,0,0,0-1.14.22,3.64,3.64,0,0,0-1,.58,2.83,2.83,0,0,0-.72.86,2.47,2.47,0,0,0-.32,1.05Z"/><path class="cls-2" d="M164.75,219.42a4.63,4.63,0,0,0,.63,1.35,4.77,4.77,0,0,0,1,1.08,4.71,4.71,0,0,0,1.31.7,5,5,0,0,0,3.37-.09,3.79,3.79,0,0,0,1.25-.89,1.89,1.89,0,0,1,.88-.41,1.78,1.78,0,0,1,.83.08,1.16,1.16,0,0,1,.49.29,1.79,1.79,0,0,1,.34.44,1.76,1.76,0,0,1,.29,1.13,1.63,1.63,0,0,1-.65,1.14,8.34,8.34,0,0,1-.9.72,7.28,7.28,0,0,1-1.15.6,7.47,7.47,0,0,1-1.45.4,9.73,9.73,0,0,1-1.79.15,8.12,8.12,0,0,1-3.22-.64,8.35,8.35,0,0,1-4.42-4.38,8.21,8.21,0,0,1,0-6.45,8.29,8.29,0,0,1,1.79-2.63,8.7,8.7,0,0,1,2.63-1.77,8.13,8.13,0,0,1,3.22-.65,8,8,0,0,1,3.2.65,8.34,8.34,0,0,1,4.42,4.35,8.11,8.11,0,0,1,.69,3.19,1.55,1.55,0,0,1-.48,1.18,1.68,1.68,0,0,1-1.22.46Zm9.22-2.88a4.71,4.71,0,0,0-.61-1.46,4.76,4.76,0,0,0-1-1.15,4.62,4.62,0,0,0-1.4-.76,4.75,4.75,0,0,0-1.64-.28,4.67,4.67,0,0,0-1.64.28,4.43,4.43,0,0,0-1.38.77,4.53,4.53,0,0,0-1,1.16,4.34,4.34,0,0,0-.59,1.44Z"/><path class="cls-2" d="M198.11,217.6v6.66a1.62,1.62,0,0,1-.49,1.21,1.79,1.79,0,0,1-2.46,0,1.63,1.63,0,0,1-.5-1.21v-6.65a7.16,7.16,0,0,0-.26-1.87,4.25,4.25,0,0,0-.73-1.44,3.36,3.36,0,0,0-1.16-.93A3.56,3.56,0,0,0,191,213a3.83,3.83,0,0,0-2.9,1.28,4.43,4.43,0,0,0-.84,1.43,5.16,5.16,0,0,0-.3,1.78v6.68a1.67,1.67,0,0,1-.5,1.22,1.64,1.64,0,0,1-1.22.49,1.74,1.74,0,0,1-.67-.13,1.87,1.87,0,0,1-.55-.36,1.72,1.72,0,0,1-.37-.55,1.67,1.67,0,0,1-.14-.67v-12.9a1.72,1.72,0,0,1,.14-.68,1.71,1.71,0,0,1,.38-.54,1.84,1.84,0,0,1,.55-.37,1.72,1.72,0,0,1,1.36,0,1.64,1.64,0,0,1,.53.37,1.87,1.87,0,0,1,.36.55,1.91,1.91,0,0,1,.13.68v.24a7.6,7.6,0,0,1,2.07-1.43,5.37,5.37,0,0,1,2.36-.54,6.34,6.34,0,0,1,2.76.61,6.43,6.43,0,0,1,2.13,1.67,7.91,7.91,0,0,1,1.38,2.53A10,10,0,0,1,198.11,217.6Z"/><path class="cls-2" d="M209.83,209.63h1.49a1.7,1.7,0,0,1,1.24.48,1.64,1.64,0,0,1,.49,1.22,1.71,1.71,0,0,1-.49,1.25,1.68,1.68,0,0,1-1.24.5h-1.49v11.14a1.67,1.67,0,0,1-1.72,1.7,1.73,1.73,0,0,1-1.23-.48,1.65,1.65,0,0,1-.5-1.22V213.08h-1.25a1.64,1.64,0,0,1-.67-.14,1.76,1.76,0,0,1-.92-.94,1.49,1.49,0,0,1-.14-.67,1.65,1.65,0,0,1,.5-1.22,1.73,1.73,0,0,1,1.23-.48h1.25v-4.19a1.65,1.65,0,0,1,.5-1.22,1.73,1.73,0,0,1,1.23-.48,1.67,1.67,0,0,1,1.72,1.7Z"/><path class="cls-2" d="M221.28,218.43a9.84,9.84,0,0,1-1.76-1,4.7,4.7,0,0,1-1.23-1.33,3.49,3.49,0,0,1-.45-1.8,4.08,4.08,0,0,1,.47-2,4.71,4.71,0,0,1,1.27-1.5,5.94,5.94,0,0,1,1.82-1,7,7,0,0,1,2.14-.34,7.76,7.76,0,0,1,1.49.15,7.62,7.62,0,0,1,1.45.44,5.3,5.3,0,0,1,1.25.72,3,3,0,0,1,.85,1,1.59,1.59,0,0,1,.17,1,1.32,1.32,0,0,1-.36.75,1.66,1.66,0,0,1-.78.48,1.33,1.33,0,0,1-.92-.08l-.69-.51a4.54,4.54,0,0,0-.67-.44,4.15,4.15,0,0,0-.71-.32,2.75,2.75,0,0,0-.84-.12,3.65,3.65,0,0,0-1.77.4,1.33,1.33,0,0,0-.71,1.23,1.22,1.22,0,0,0,.23.73,2.22,2.22,0,0,0,.61.56,5.79,5.79,0,0,0,.93.44c.36.13.75.26,1.18.39.69.22,1.35.45,2,.71a6.81,6.81,0,0,1,1.66.93,4.18,4.18,0,0,1,1.14,1.34,3.94,3.94,0,0,1,.43,1.89,4.25,4.25,0,0,1-.45,1.93,4.79,4.79,0,0,1-1.22,1.55,5.8,5.8,0,0,1-1.84,1,6.93,6.93,0,0,1-2.32.38,9.18,9.18,0,0,1-1.69-.16,7.63,7.63,0,0,1-1.68-.53,6,6,0,0,1-1.47-.91,4.26,4.26,0,0,1-1.08-1.34,1.82,1.82,0,0,1-.27-.95,1.41,1.41,0,0,1,.21-.77,1.5,1.5,0,0,1,.53-.53,1.64,1.64,0,0,1,.76-.22,1.76,1.76,0,0,1,.85.16,2.21,2.21,0,0,1,.79.64,3.62,3.62,0,0,0,1.26,1.19,3.76,3.76,0,0,0,1.78.37,3.5,3.5,0,0,0,.91-.12,2.82,2.82,0,0,0,.81-.34,1.53,1.53,0,0,0,.56-.54,1.4,1.4,0,0,0-.07-1.58,2.18,2.18,0,0,0-.69-.58,4.38,4.38,0,0,0-.91-.39l-.93-.3Q222.26,218.85,221.28,218.43Z"/><path class="cls-3" d="M204,153.52c-1.19,1.93-2.15,4.08-3.64,5.73a8.79,8.79,0,0,1-6.76,2.61H183.33c0,.69-.08,1.24-.09,1.8,0,5,0,10,0,14.94,0,1.72-.45,3.08-2.11,3.81s-3.11.06-4.35-1.17c-6-6.07-12.1-12.11-18.11-18.2a3.68,3.68,0,0,0-2.86-1.2c-20.1,0-40.21-.09-60.31.09A11,11,0,0,1,84,150.45c.24-9.37.06-18.75.06-28.13v-2.14c-3.58,0-7.07,0-10.57,0-.46,0-1,.54-1.36.93Q63.26,130,54.39,139c-.41.41-.81.83-1.26,1.2a3.49,3.49,0,0,1-5.78-2.74c0-5,0-10.08,0-15.11v-2.12c-3.54,0-7,0-10.43,0a9.85,9.85,0,0,1-9.27-5.85,10.79,10.79,0,0,1-1.05-4.49q-.11-34.81,0-69.64A10.22,10.22,0,0,1,36.81,29.89q49.74,0,99.49,0a10.22,10.22,0,0,1,10.18,10.34c.05,9.72,0,19.45,0,29.17v2.15h2.08q22,0,44,0c5.93,0,9.18,2.32,11.14,7.93a1.61,1.61,0,0,0,.3.4Zm-27.73,17.32c0-4.35,0-8.16,0-12,0-2.62,1.33-3.95,3.93-4,3.93,0,7.86,0,11.79,0s5.07-1.16,5.07-5V83.55c0-3.89-1.17-5-5.06-5h-96c-3.87,0-5,1.17-5,5.09v66.14c0,4.05,1.12,5.18,5.11,5.18,20.5,0,41,0,61.51,0a6.29,6.29,0,0,1,4.88,2.05C167,161.48,171.47,166,176.31,170.84ZM84.07,99.34h-2c-10.17,0-20.34,0-30.5,0a4.6,4.6,0,0,1-3.21-1.19,4.54,4.54,0,0,1-.67-3.47c.37-1.6,1.8-2.25,3.49-2.24q15.51,0,31,0h2V78.5H52c-.52,0-1,0-1.56,0a3.46,3.46,0,0,1,0-6.89c.63-.06,1.27,0,1.91,0h87.15c0-10.23,0-20.19,0-30.14,0-3.28-1.33-4.6-4.65-4.6H38.19c-3.4,0-4.7,1.3-4.7,4.73v67c0,3.32,1.32,4.64,4.6,4.65,4,0,8.09,0,12.13,0,2.73,0,4.05,1.31,4.06,4,0,3.42,0,6.83,0,10.25,0,.4.09.81.16,1.48,4.71-4.74,9.22-9.22,13.67-13.77a5.82,5.82,0,0,1,4.73-2c2.77.13,5.55,0,8.32,0h2.9Z"/><path class="cls-3" d="M144.06,113.23h34.47a12.42,12.42,0,0,1,1.73,0,3.46,3.46,0,0,1,0,6.85,14.22,14.22,0,0,1-1.73.05H109.61a12.46,12.46,0,0,1-1.73-.05,3.46,3.46,0,0,1,0-6.85,12.5,12.5,0,0,1,1.73,0Z"/><path class="cls-3" d="M144.08,141H109.6a12.5,12.5,0,0,1-1.73,0,3.46,3.46,0,0,1,0-6.85,12.46,12.46,0,0,1,1.73,0q34.47,0,68.95,0a12.46,12.46,0,0,1,1.73,0,3.46,3.46,0,0,1,0,6.85,12.46,12.46,0,0,1-1.73,0Z"/><path class="cls-3" d="M137.15,99.34H109.61a12.46,12.46,0,0,1-1.73,0,3.46,3.46,0,0,1,0-6.85,10.76,10.76,0,0,1,1.39,0q27.89,0,55.78,0c.34,0,.69,0,1,0a3.46,3.46,0,0,1,0,6.91c-.52,0-1,0-1.56,0Z"/><path class="cls-3" d="M183.23,95.87a3.46,3.46,0,1,1-3.36-3.47A3.46,3.46,0,0,1,183.23,95.87Z"/><path class="cls-3" d="M79.77,50.72c9.3,0,18.6,0,27.89.05A5.18,5.18,0,0,1,111,52.09c1.84,1.91.5,5.13-2.15,5.52a10,10,0,0,1-1.55,0H51.88c-.41,0-.81,0-1.22,0a3.43,3.43,0,0,1-3.29-3.54,3.37,3.37,0,0,1,3.3-3.35c2.37-.08,4.74,0,7.1,0Z"/><path class="cls-3" d="M125.69,54.11a3.46,3.46,0,1,1-3.45-3.38A3.46,3.46,0,0,1,125.69,54.11Z"/></svg>